<svg width="395" height="270" viewBox="0 0 395 270" fill="none" xmlns="http://www.w3.org/2000/svg">
<circle cx="83.5" cy="62.5" r="60" stroke="url(#paint0_linear_43153_2043)" stroke-width="5"/>
<path d="M467.5 97C466.119 97 465 95.8807 465 94.5C465 93.1193 466.119 92 467.5 92C468.881 92 470 93.1193 470 94.5C470 95.8807 468.881 97 467.5 97Z" fill="url(#paint1_linear_43153_2043)"/>
<path d="M467.5 112C466.119 112 465 110.881 465 109.5C465 108.119 466.119 107 467.5 107C468.881 107 470 108.119 470 109.5C470 110.881 468.881 112 467.5 112Z" fill="url(#paint2_linear_43153_2043)"/>
<path d="M467.5 127C466.119 127 465 125.881 465 124.5C465 123.119 466.119 122 467.5 122C468.881 122 470 123.119 470 124.5C470 125.881 468.881 127 467.5 127Z" fill="url(#paint3_linear_43153_2043)"/>
<path d="M467.5 142C466.119 142 465 140.881 465 139.5C465 138.119 466.119 137 467.5 137C468.881 137 470 138.119 470 139.5C470 140.881 468.881 142 467.5 142Z" fill="url(#paint4_linear_43153_2043)"/>
<path d="M467.5 157C466.119 157 465 155.881 465 154.5C465 153.119 466.119 152 467.5 152C468.881 152 470 153.119 470 154.5C470 155.881 468.881 157 467.5 157Z" fill="url(#paint5_linear_43153_2043)"/>
<path d="M452.5 97C451.119 97 450 95.8807 450 94.5C450 93.1193 451.119 92 452.5 92C453.881 92 455 93.1193 455 94.5C455 95.8807 453.881 97 452.5 97Z" fill="url(#paint6_linear_43153_2043)"/>
<path d="M452.5 112C451.119 112 450 110.881 450 109.5C450 108.119 451.119 107 452.5 107C453.881 107 455 108.119 455 109.5C455 110.881 453.881 112 452.5 112Z" fill="url(#paint7_linear_43153_2043)"/>
<path d="M452.5 127C451.119 127 450 125.881 450 124.5C450 123.119 451.119 122 452.5 122C453.881 122 455 123.119 455 124.5C455 125.881 453.881 127 452.5 127Z" fill="url(#paint8_linear_43153_2043)"/>
<path d="M452.5 142C451.119 142 450 140.881 450 139.5C450 138.119 451.119 137 452.5 137C453.881 137 455 138.119 455 139.5C455 140.881 453.881 142 452.5 142Z" fill="url(#paint9_linear_43153_2043)"/>
<path d="M452.5 157C451.119 157 450 155.881 450 154.5C450 153.119 451.119 152 452.5 152C453.881 152 455 153.119 455 154.5C455 155.881 453.881 157 452.5 157Z" fill="url(#paint10_linear_43153_2043)"/>
<path d="M437.5 97C436.119 97 435 95.8807 435 94.5C435 93.1193 436.119 92 437.5 92C438.881 92 440 93.1193 440 94.5C440 95.8807 438.881 97 437.5 97Z" fill="url(#paint11_linear_43153_2043)"/>
<path d="M437.5 112C436.119 112 435 110.881 435 109.5C435 108.119 436.119 107 437.5 107C438.881 107 440 108.119 440 109.5C440 110.881 438.881 112 437.5 112Z" fill="url(#paint12_linear_43153_2043)"/>
<path d="M437.5 127C436.119 127 435 125.881 435 124.5C435 123.119 436.119 122 437.5 122C438.881 122 440 123.119 440 124.5C440 125.881 438.881 127 437.5 127Z" fill="url(#paint13_linear_43153_2043)"/>
<path d="M437.5 142C436.119 142 435 140.881 435 139.5C435 138.119 436.119 137 437.5 137C438.881 137 440 138.119 440 139.5C440 140.881 438.881 142 437.5 142Z" fill="url(#paint14_linear_43153_2043)"/>
<path d="M437.5 157C436.119 157 435 155.881 435 154.5C435 153.119 436.119 152 437.5 152C438.881 152 440 153.119 440 154.5C440 155.881 438.881 157 437.5 157Z" fill="url(#paint15_linear_43153_2043)"/>
<path d="M422.5 97C421.119 97 420 95.8807 420 94.5C420 93.1193 421.119 92 422.5 92C423.881 92 425 93.1193 425 94.5C425 95.8807 423.881 97 422.5 97Z" fill="url(#paint16_linear_43153_2043)"/>
<path d="M422.5 112C421.119 112 420 110.881 420 109.5C420 108.119 421.119 107 422.5 107C423.881 107 425 108.119 425 109.5C425 110.881 423.881 112 422.5 112Z" fill="url(#paint17_linear_43153_2043)"/>
<path d="M422.5 127C421.119 127 420 125.881 420 124.5C420 123.119 421.119 122 422.5 122C423.881 122 425 123.119 425 124.5C425 125.881 423.881 127 422.5 127Z" fill="url(#paint18_linear_43153_2043)"/>
<path d="M422.5 142C421.119 142 420 140.881 420 139.5C420 138.119 421.119 137 422.5 137C423.881 137 425 138.119 425 139.5C425 140.881 423.881 142 422.5 142Z" fill="url(#paint19_linear_43153_2043)"/>
<path d="M422.5 157C421.119 157 420 155.881 420 154.5C420 153.119 421.119 152 422.5 152C423.881 152 425 153.119 425 154.5C425 155.881 423.881 157 422.5 157Z" fill="url(#paint20_linear_43153_2043)"/>
<path d="M407.5 97C406.119 97 405 95.8807 405 94.5C405 93.1193 406.119 92 407.5 92C408.881 92 410 93.1193 410 94.5C410 95.8807 408.881 97 407.5 97Z" fill="url(#paint21_linear_43153_2043)"/>
<path d="M407.5 112C406.119 112 405 110.881 405 109.5C405 108.119 406.119 107 407.5 107C408.881 107 410 108.119 410 109.5C410 110.881 408.881 112 407.5 112Z" fill="url(#paint22_linear_43153_2043)"/>
<path d="M407.5 127C406.119 127 405 125.881 405 124.5C405 123.119 406.119 122 407.5 122C408.881 122 410 123.119 410 124.5C410 125.881 408.881 127 407.5 127Z" fill="url(#paint23_linear_43153_2043)"/>
<path d="M407.5 142C406.119 142 405 140.881 405 139.5C405 138.119 406.119 137 407.5 137C408.881 137 410 138.119 410 139.5C410 140.881 408.881 142 407.5 142Z" fill="url(#paint24_linear_43153_2043)"/>
<path d="M407.5 157C406.119 157 405 155.881 405 154.5C405 153.119 406.119 152 407.5 152C408.881 152 410 153.119 410 154.5C410 155.881 408.881 157 407.5 157Z" fill="url(#paint25_linear_43153_2043)"/>
<path d="M392.5 97C391.119 97 390 95.8807 390 94.5C390 93.1193 391.119 92 392.5 92C393.881 92 395 93.1193 395 94.5C395 95.8807 393.881 97 392.5 97Z" fill="url(#paint26_linear_43153_2043)"/>
<path d="M392.5 112C391.119 112 390 110.881 390 109.5C390 108.119 391.119 107 392.5 107C393.881 107 395 108.119 395 109.5C395 110.881 393.881 112 392.5 112Z" fill="url(#paint27_linear_43153_2043)"/>
<path d="M392.5 127C391.119 127 390 125.881 390 124.5C390 123.119 391.119 122 392.5 122C393.881 122 395 123.119 395 124.5C395 125.881 393.881 127 392.5 127Z" fill="url(#paint28_linear_43153_2043)"/>
<path d="M392.5 142C391.119 142 390 140.881 390 139.5C390 138.119 391.119 137 392.5 137C393.881 137 395 138.119 395 139.5C395 140.881 393.881 142 392.5 142Z" fill="url(#paint29_linear_43153_2043)"/>
<path d="M392.5 157C391.119 157 390 155.881 390 154.5C390 153.119 391.119 152 392.5 152C393.881 152 395 153.119 395 154.5C395 155.881 393.881 157 392.5 157Z" fill="url(#paint30_linear_43153_2043)"/>
<path d="M377.5 97C376.119 97 375 95.8807 375 94.5C375 93.1193 376.119 92 377.5 92C378.881 92 380 93.1193 380 94.5C380 95.8807 378.881 97 377.5 97Z" fill="url(#paint31_linear_43153_2043)"/>
<path d="M377.5 112C376.119 112 375 110.881 375 109.5C375 108.119 376.119 107 377.5 107C378.881 107 380 108.119 380 109.5C380 110.881 378.881 112 377.5 112Z" fill="url(#paint32_linear_43153_2043)"/>
<path d="M377.5 127C376.119 127 375 125.881 375 124.5C375 123.119 376.119 122 377.5 122C378.881 122 380 123.119 380 124.5C380 125.881 378.881 127 377.5 127Z" fill="url(#paint33_linear_43153_2043)"/>
<path d="M377.5 142C376.119 142 375 140.881 375 139.5C375 138.119 376.119 137 377.5 137C378.881 137 380 138.119 380 139.5C380 140.881 378.881 142 377.5 142Z" fill="url(#paint34_linear_43153_2043)"/>
<path d="M377.5 157C376.119 157 375 155.881 375 154.5C375 153.119 376.119 152 377.5 152C378.881 152 380 153.119 380 154.5C380 155.881 378.881 157 377.5 157Z" fill="url(#paint35_linear_43153_2043)"/>
<path d="M362.5 97C361.119 97 360 95.8807 360 94.5C360 93.1193 361.119 92 362.5 92C363.881 92 365 93.1193 365 94.5C365 95.8807 363.881 97 362.5 97Z" fill="url(#paint36_linear_43153_2043)"/>
<path d="M362.5 112C361.119 112 360 110.881 360 109.5C360 108.119 361.119 107 362.5 107C363.881 107 365 108.119 365 109.5C365 110.881 363.881 112 362.5 112Z" fill="url(#paint37_linear_43153_2043)"/>
<path d="M362.5 127C361.119 127 360 125.881 360 124.5C360 123.119 361.119 122 362.5 122C363.881 122 365 123.119 365 124.5C365 125.881 363.881 127 362.5 127Z" fill="url(#paint38_linear_43153_2043)"/>
<path d="M362.5 142C361.119 142 360 140.881 360 139.5C360 138.119 361.119 137 362.5 137C363.881 137 365 138.119 365 139.5C365 140.881 363.881 142 362.5 142Z" fill="url(#paint39_linear_43153_2043)"/>
<path d="M362.5 157C361.119 157 360 155.881 360 154.5C360 153.119 361.119 152 362.5 152C363.881 152 365 153.119 365 154.5C365 155.881 363.881 157 362.5 157Z" fill="url(#paint40_linear_43153_2043)"/>
<path d="M347.5 97C346.119 97 345 95.8807 345 94.5C345 93.1193 346.119 92 347.5 92C348.881 92 350 93.1193 350 94.5C350 95.8807 348.881 97 347.5 97Z" fill="url(#paint41_linear_43153_2043)"/>
<path d="M347.5 112C346.119 112 345 110.881 345 109.5C345 108.119 346.119 107 347.5 107C348.881 107 350 108.119 350 109.5C350 110.881 348.881 112 347.5 112Z" fill="url(#paint42_linear_43153_2043)"/>
<path d="M347.5 127C346.119 127 345 125.881 345 124.5C345 123.119 346.119 122 347.5 122C348.881 122 350 123.119 350 124.5C350 125.881 348.881 127 347.5 127Z" fill="url(#paint43_linear_43153_2043)"/>
<path d="M347.5 142C346.119 142 345 140.881 345 139.5C345 138.119 346.119 137 347.5 137C348.881 137 350 138.119 350 139.5C350 140.881 348.881 142 347.5 142Z" fill="url(#paint44_linear_43153_2043)"/>
<path d="M347.5 157C346.119 157 345 155.881 345 154.5C345 153.119 346.119 152 347.5 152C348.881 152 350 153.119 350 154.5C350 155.881 348.881 157 347.5 157Z" fill="url(#paint45_linear_43153_2043)"/>
<path d="M332.5 97C331.119 97 330 95.8807 330 94.5C330 93.1193 331.119 92 332.5 92C333.881 92 335 93.1193 335 94.5C335 95.8807 333.881 97 332.5 97Z" fill="url(#paint46_linear_43153_2043)"/>
<path d="M332.5 112C331.119 112 330 110.881 330 109.5C330 108.119 331.119 107 332.5 107C333.881 107 335 108.119 335 109.5C335 110.881 333.881 112 332.5 112Z" fill="url(#paint47_linear_43153_2043)"/>
<path d="M332.5 127C331.119 127 330 125.881 330 124.5C330 123.119 331.119 122 332.5 122C333.881 122 335 123.119 335 124.5C335 125.881 333.881 127 332.5 127Z" fill="url(#paint48_linear_43153_2043)"/>
<path d="M332.5 142C331.119 142 330 140.881 330 139.5C330 138.119 331.119 137 332.5 137C333.881 137 335 138.119 335 139.5C335 140.881 333.881 142 332.5 142Z" fill="url(#paint49_linear_43153_2043)"/>
<path d="M332.5 157C331.119 157 330 155.881 330 154.5C330 153.119 331.119 152 332.5 152C333.881 152 335 153.119 335 154.5C335 155.881 333.881 157 332.5 157Z" fill="url(#paint50_linear_43153_2043)"/>
<path d="M50 170C75.7307 170 96.9556 189.148 100 213.871H75.5966C72.818 202.397 62.4122 193.871 50 193.871C37.5878 193.871 27.182 202.397 24.4034 213.871H0C3.04444 189.148 24.2693 170 50 170Z" fill="url(#paint51_linear_43153_2043)"/>
<path d="M75.5966 226.129H100C96.9556 250.852 75.7307 270 50 270C24.2693 270 3.04444 250.852 0 226.129H24.4034C27.182 237.603 37.5878 246.129 50 246.129C62.4122 246.129 72.818 237.603 75.5966 226.129Z" fill="url(#paint52_linear_43153_2043)"/>
<path d="M50 236.452C59.1541 236.452 66.5749 229.086 66.5749 220C66.5749 210.914 59.1541 203.548 50 203.548C40.8459 203.548 33.4251 210.914 33.4251 220C33.4251 229.086 40.8459 236.452 50 236.452Z" fill="url(#paint53_linear_43153_2043)"/>
<defs>
<linearGradient id="paint0_linear_43153_2043" x1="83" y1="125" x2="35" y2="24" gradientUnits="userSpaceOnUse">
<stop stop-color="white" stop-opacity="0.35"/>
<stop offset="0.42247" stop-color="white" stop-opacity="0"/>
</linearGradient>
<linearGradient id="paint1_linear_43153_2043" x1="470" y1="92" x2="463.172" y2="168.835" gradientUnits="userSpaceOnUse">
<stop stop-color="white" stop-opacity="0.3"/>
<stop offset="1" stop-color="white" stop-opacity="0"/>
</linearGradient>
<linearGradient id="paint2_linear_43153_2043" x1="470" y1="92" x2="463.172" y2="168.835" gradientUnits="userSpaceOnUse">
<stop stop-color="white" stop-opacity="0.3"/>
<stop offset="1" stop-color="white" stop-opacity="0"/>
</linearGradient>
<linearGradient id="paint3_linear_43153_2043" x1="470" y1="92" x2="463.172" y2="168.835" gradientUnits="userSpaceOnUse">
<stop stop-color="white" stop-opacity="0.3"/>
<stop offset="1" stop-color="white" stop-opacity="0"/>
</linearGradient>
<linearGradient id="paint4_linear_43153_2043" x1="470" y1="92" x2="463.172" y2="168.835" gradientUnits="userSpaceOnUse">
<stop stop-color="white" stop-opacity="0.3"/>
<stop offset="1" stop-color="white" stop-opacity="0"/>
</linearGradient>
<linearGradient id="paint5_linear_43153_2043" x1="470" y1="92" x2="463.172" y2="168.835" gradientUnits="userSpaceOnUse">
<stop stop-color="white" stop-opacity="0.3"/>
<stop offset="1" stop-color="white" stop-opacity="0"/>
</linearGradient>
<linearGradient id="paint6_linear_43153_2043" x1="470" y1="92" x2="463.172" y2="168.835" gradientUnits="userSpaceOnUse">
<stop stop-color="white" stop-opacity="0.3"/>
<stop offset="1" stop-color="white" stop-opacity="0"/>
</linearGradient>
<linearGradient id="paint7_linear_43153_2043" x1="470" y1="92" x2="463.172" y2="168.835" gradientUnits="userSpaceOnUse">
<stop stop-color="white" stop-opacity="0.3"/>
<stop offset="1" stop-color="white" stop-opacity="0"/>
</linearGradient>
<linearGradient id="paint8_linear_43153_2043" x1="470" y1="92" x2="463.172" y2="168.835" gradientUnits="userSpaceOnUse">
<stop stop-color="white" stop-opacity="0.3"/>
<stop offset="1" stop-color="white" stop-opacity="0"/>
</linearGradient>
<linearGradient id="paint9_linear_43153_2043" x1="470" y1="92" x2="463.172" y2="168.835" gradientUnits="userSpaceOnUse">
<stop stop-color="white" stop-opacity="0.3"/>
<stop offset="1" stop-color="white" stop-opacity="0"/>
</linearGradient>
<linearGradient id="paint10_linear_43153_2043" x1="470" y1="92" x2="463.172" y2="168.835" gradientUnits="userSpaceOnUse">
<stop stop-color="white" stop-opacity="0.3"/>
<stop offset="1" stop-color="white" stop-opacity="0"/>
</linearGradient>
<linearGradient id="paint11_linear_43153_2043" x1="470" y1="92" x2="463.172" y2="168.835" gradientUnits="userSpaceOnUse">
<stop stop-color="white" stop-opacity="0.3"/>
<stop offset="1" stop-color="white" stop-opacity="0"/>
</linearGradient>
<linearGradient id="paint12_linear_43153_2043" x1="470" y1="92" x2="463.172" y2="168.835" gradientUnits="userSpaceOnUse">
<stop stop-color="white" stop-opacity="0.3"/>
<stop offset="1" stop-color="white" stop-opacity="0"/>
</linearGradient>
<linearGradient id="paint13_linear_43153_2043" x1="470" y1="92" x2="463.172" y2="168.835" gradientUnits="userSpaceOnUse">
<stop stop-color="white" stop-opacity="0.3"/>
<stop offset="1" stop-color="white" stop-opacity="0"/>
</linearGradient>
<linearGradient id="paint14_linear_43153_2043" x1="470" y1="92" x2="463.172" y2="168.835" gradientUnits="userSpaceOnUse">
<stop stop-color="white" stop-opacity="0.3"/>
<stop offset="1" stop-color="white" stop-opacity="0"/>
</linearGradient>
<linearGradient id="paint15_linear_43153_2043" x1="470" y1="92" x2="463.172" y2="168.835" gradientUnits="userSpaceOnUse">
<stop stop-color="white" stop-opacity="0.3"/>
<stop offset="1" stop-color="white" stop-opacity="0"/>
</linearGradient>
<linearGradient id="paint16_linear_43153_2043" x1="470" y1="92" x2="463.172" y2="168.835" gradientUnits="userSpaceOnUse">
<stop stop-color="white" stop-opacity="0.3"/>
<stop offset="1" stop-color="white" stop-opacity="0"/>
</linearGradient>
<linearGradient id="paint17_linear_43153_2043" x1="470" y1="92" x2="463.172" y2="168.835" gradientUnits="userSpaceOnUse">
<stop stop-color="white" stop-opacity="0.3"/>
<stop offset="1" stop-color="white" stop-opacity="0"/>
</linearGradient>
<linearGradient id="paint18_linear_43153_2043" x1="470" y1="92" x2="463.172" y2="168.835" gradientUnits="userSpaceOnUse">
<stop stop-color="white" stop-opacity="0.3"/>
<stop offset="1" stop-color="white" stop-opacity="0"/>
</linearGradient>
<linearGradient id="paint19_linear_43153_2043" x1="470" y1="92" x2="463.172" y2="168.835" gradientUnits="userSpaceOnUse">
<stop stop-color="white" stop-opacity="0.3"/>
<stop offset="1" stop-color="white" stop-opacity="0"/>
</linearGradient>
<linearGradient id="paint20_linear_43153_2043" x1="470" y1="92" x2="463.172" y2="168.835" gradientUnits="userSpaceOnUse">
<stop stop-color="white" stop-opacity="0.3"/>
<stop offset="1" stop-color="white" stop-opacity="0"/>
</linearGradient>
<linearGradient id="paint21_linear_43153_2043" x1="470" y1="92" x2="463.172" y2="168.835" gradientUnits="userSpaceOnUse">
<stop stop-color="white" stop-opacity="0.3"/>
<stop offset="1" stop-color="white" stop-opacity="0"/>
</linearGradient>
<linearGradient id="paint22_linear_43153_2043" x1="470" y1="92" x2="463.172" y2="168.835" gradientUnits="userSpaceOnUse">
<stop stop-color="white" stop-opacity="0.3"/>
<stop offset="1" stop-color="white" stop-opacity="0"/>
</linearGradient>
<linearGradient id="paint23_linear_43153_2043" x1="470" y1="92" x2="463.172" y2="168.835" gradientUnits="userSpaceOnUse">
<stop stop-color="white" stop-opacity="0.3"/>
<stop offset="1" stop-color="white" stop-opacity="0"/>
</linearGradient>
<linearGradient id="paint24_linear_43153_2043" x1="470" y1="92" x2="463.172" y2="168.835" gradientUnits="userSpaceOnUse">
<stop stop-color="white" stop-opacity="0.3"/>
<stop offset="1" stop-color="white" stop-opacity="0"/>
</linearGradient>
<linearGradient id="paint25_linear_43153_2043" x1="470" y1="92" x2="463.172" y2="168.835" gradientUnits="userSpaceOnUse">
<stop stop-color="white" stop-opacity="0.3"/>
<stop offset="1" stop-color="white" stop-opacity="0"/>
</linearGradient>
<linearGradient id="paint26_linear_43153_2043" x1="470" y1="92" x2="463.172" y2="168.835" gradientUnits="userSpaceOnUse">
<stop stop-color="white" stop-opacity="0.3"/>
<stop offset="1" stop-color="white" stop-opacity="0"/>
</linearGradient>
<linearGradient id="paint27_linear_43153_2043" x1="470" y1="92" x2="463.172" y2="168.835" gradientUnits="userSpaceOnUse">
<stop stop-color="white" stop-opacity="0.3"/>
<stop offset="1" stop-color="white" stop-opacity="0"/>
</linearGradient>
<linearGradient id="paint28_linear_43153_2043" x1="470" y1="92" x2="463.172" y2="168.835" gradientUnits="userSpaceOnUse">
<stop stop-color="white" stop-opacity="0.3"/>
<stop offset="1" stop-color="white" stop-opacity="0"/>
</linearGradient>
<linearGradient id="paint29_linear_43153_2043" x1="470" y1="92" x2="463.172" y2="168.835" gradientUnits="userSpaceOnUse">
<stop stop-color="white" stop-opacity="0.3"/>
<stop offset="1" stop-color="white" stop-opacity="0"/>
</linearGradient>
<linearGradient id="paint30_linear_43153_2043" x1="470" y1="92" x2="463.172" y2="168.835" gradientUnits="userSpaceOnUse">
<stop stop-color="white" stop-opacity="0.3"/>
<stop offset="1" stop-color="white" stop-opacity="0"/>
</linearGradient>
<linearGradient id="paint31_linear_43153_2043" x1="470" y1="92" x2="463.172" y2="168.835" gradientUnits="userSpaceOnUse">
<stop stop-color="white" stop-opacity="0.3"/>
<stop offset="1" stop-color="white" stop-opacity="0"/>
</linearGradient>
<linearGradient id="paint32_linear_43153_2043" x1="470" y1="92" x2="463.172" y2="168.835" gradientUnits="userSpaceOnUse">
<stop stop-color="white" stop-opacity="0.3"/>
<stop offset="1" stop-color="white" stop-opacity="0"/>
</linearGradient>
<linearGradient id="paint33_linear_43153_2043" x1="470" y1="92" x2="463.172" y2="168.835" gradientUnits="userSpaceOnUse">
<stop stop-color="white" stop-opacity="0.3"/>
<stop offset="1" stop-color="white" stop-opacity="0"/>
</linearGradient>
<linearGradient id="paint34_linear_43153_2043" x1="470" y1="92" x2="463.172" y2="168.835" gradientUnits="userSpaceOnUse">
<stop stop-color="white" stop-opacity="0.3"/>
<stop offset="1" stop-color="white" stop-opacity="0"/>
</linearGradient>
<linearGradient id="paint35_linear_43153_2043" x1="470" y1="92" x2="463.172" y2="168.835" gradientUnits="userSpaceOnUse">
<stop stop-color="white" stop-opacity="0.3"/>
<stop offset="1" stop-color="white" stop-opacity="0"/>
</linearGradient>
<linearGradient id="paint36_linear_43153_2043" x1="470" y1="92" x2="463.172" y2="168.835" gradientUnits="userSpaceOnUse">
<stop stop-color="white" stop-opacity="0.3"/>
<stop offset="1" stop-color="white" stop-opacity="0"/>
</linearGradient>
<linearGradient id="paint37_linear_43153_2043" x1="470" y1="92" x2="463.172" y2="168.835" gradientUnits="userSpaceOnUse">
<stop stop-color="white" stop-opacity="0.3"/>
<stop offset="1" stop-color="white" stop-opacity="0"/>
</linearGradient>
<linearGradient id="paint38_linear_43153_2043" x1="470" y1="92" x2="463.172" y2="168.835" gradientUnits="userSpaceOnUse">
<stop stop-color="white" stop-opacity="0.3"/>
<stop offset="1" stop-color="white" stop-opacity="0"/>
</linearGradient>
<linearGradient id="paint39_linear_43153_2043" x1="470" y1="92" x2="463.172" y2="168.835" gradientUnits="userSpaceOnUse">
<stop stop-color="white" stop-opacity="0.3"/>
<stop offset="1" stop-color="white" stop-opacity="0"/>
</linearGradient>
<linearGradient id="paint40_linear_43153_2043" x1="470" y1="92" x2="463.172" y2="168.835" gradientUnits="userSpaceOnUse">
<stop stop-color="white" stop-opacity="0.3"/>
<stop offset="1" stop-color="white" stop-opacity="0"/>
</linearGradient>
<linearGradient id="paint41_linear_43153_2043" x1="470" y1="92" x2="463.172" y2="168.835" gradientUnits="userSpaceOnUse">
<stop stop-color="white" stop-opacity="0.3"/>
<stop offset="1" stop-color="white" stop-opacity="0"/>
</linearGradient>
<linearGradient id="paint42_linear_43153_2043" x1="470" y1="92" x2="463.172" y2="168.835" gradientUnits="userSpaceOnUse">
<stop stop-color="white" stop-opacity="0.3"/>
<stop offset="1" stop-color="white" stop-opacity="0"/>
</linearGradient>
<linearGradient id="paint43_linear_43153_2043" x1="470" y1="92" x2="463.172" y2="168.835" gradientUnits="userSpaceOnUse">
<stop stop-color="white" stop-opacity="0.3"/>
<stop offset="1" stop-color="white" stop-opacity="0"/>
</linearGradient>
<linearGradient id="paint44_linear_43153_2043" x1="470" y1="92" x2="463.172" y2="168.835" gradientUnits="userSpaceOnUse">
<stop stop-color="white" stop-opacity="0.3"/>
<stop offset="1" stop-color="white" stop-opacity="0"/>
</linearGradient>
<linearGradient id="paint45_linear_43153_2043" x1="470" y1="92" x2="463.172" y2="168.835" gradientUnits="userSpaceOnUse">
<stop stop-color="white" stop-opacity="0.3"/>
<stop offset="1" stop-color="white" stop-opacity="0"/>
</linearGradient>
<linearGradient id="paint46_linear_43153_2043" x1="470" y1="92" x2="463.172" y2="168.835" gradientUnits="userSpaceOnUse">
<stop stop-color="white" stop-opacity="0.3"/>
<stop offset="1" stop-color="white" stop-opacity="0"/>
</linearGradient>
<linearGradient id="paint47_linear_43153_2043" x1="470" y1="92" x2="463.172" y2="168.835" gradientUnits="userSpaceOnUse">
<stop stop-color="white" stop-opacity="0.3"/>
<stop offset="1" stop-color="white" stop-opacity="0"/>
</linearGradient>
<linearGradient id="paint48_linear_43153_2043" x1="470" y1="92" x2="463.172" y2="168.835" gradientUnits="userSpaceOnUse">
<stop stop-color="white" stop-opacity="0.3"/>
<stop offset="1" stop-color="white" stop-opacity="0"/>
</linearGradient>
<linearGradient id="paint49_linear_43153_2043" x1="470" y1="92" x2="463.172" y2="168.835" gradientUnits="userSpaceOnUse">
<stop stop-color="white" stop-opacity="0.3"/>
<stop offset="1" stop-color="white" stop-opacity="0"/>
</linearGradient>
<linearGradient id="paint50_linear_43153_2043" x1="470" y1="92" x2="463.172" y2="168.835" gradientUnits="userSpaceOnUse">
<stop stop-color="white" stop-opacity="0.3"/>
<stop offset="1" stop-color="white" stop-opacity="0"/>
</linearGradient>
<linearGradient id="paint51_linear_43153_2043" x1="0" y1="170" x2="114.93" y2="191.998" gradientUnits="userSpaceOnUse">
<stop stop-color="white" stop-opacity="0.3"/>
<stop offset="1" stop-color="white" stop-opacity="0"/>
</linearGradient>
<linearGradient id="paint52_linear_43153_2043" x1="0" y1="170" x2="114.93" y2="191.998" gradientUnits="userSpaceOnUse">
<stop stop-color="white" stop-opacity="0.3"/>
<stop offset="1" stop-color="white" stop-opacity="0"/>
</linearGradient>
<linearGradient id="paint53_linear_43153_2043" x1="0" y1="170" x2="114.93" y2="191.998" gradientUnits="userSpaceOnUse">
<stop stop-color="white" stop-opacity="0.3"/>
<stop offset="1" stop-color="white" stop-opacity="0"/>
</linearGradient>
</defs>
</svg>
